<svg xmlns="http://www.w3.org/2000/svg" viewBox="0 0 1280 800" role="img" aria-label="Gift basket">
  <defs>
    <linearGradient id="bg" x1="0" y1="0" x2="1" y2="1">
      <stop offset="0%" stop-color="#07100f" />
      <stop offset="50%" stop-color="#13211c" />
      <stop offset="100%" stop-color="#221812" />
    </linearGradient>
    <radialGradient id="light" cx="70%" cy="20%" r="30%">
      <stop offset="0%" stop-color="#fff5d8" stop-opacity="0.92" />
      <stop offset="40%" stop-color="#f1d891" stop-opacity="0.38" />
      <stop offset="100%" stop-color="#f1d891" stop-opacity="0" />
    </radialGradient>
    <radialGradient id="tableGlow" cx="48%" cy="78%" r="44%">
      <stop offset="0%" stop-color="#f3dfad" stop-opacity="0.26" />
      <stop offset="100%" stop-color="#f3dfad" stop-opacity="0" />
    </radialGradient>
    <linearGradient id="cloth" x1="0" y1="0" x2="1" y2="1">
      <stop offset="0%" stop-color="#e0d2b5" stop-opacity="0.95" />
      <stop offset="100%" stop-color="#9b8764" stop-opacity="0.88" />
    </linearGradient>
    <linearGradient id="basket" x1="0" y1="0" x2="0" y2="1">
      <stop offset="0%" stop-color="#d4a05a" />
      <stop offset="100%" stop-color="#8b5b31" />
    </linearGradient>
    <radialGradient id="bread" cx="35%" cy="35%" r="68%">
      <stop offset="0%" stop-color="#ffe2ae" />
      <stop offset="100%" stop-color="#bf8547" />
    </radialGradient>
    <radialGradient id="orange" cx="35%" cy="35%" r="72%">
      <stop offset="0%" stop-color="#ffd38e" />
      <stop offset="100%" stop-color="#d17a2c" />
    </radialGradient>
    <filter id="blur16" x="-20%" y="-20%" width="140%" height="140%">
      <feGaussianBlur stdDeviation="16" />
    </filter>
    <filter id="blur28" x="-20%" y="-20%" width="140%" height="140%">
      <feGaussianBlur stdDeviation="28" />
    </filter>
    <filter id="grain" x="-10%" y="-10%" width="120%" height="120%">
      <feTurbulence type="fractalNoise" baseFrequency="0.78" numOctaves="2" seed="31" />
      <feComponentTransfer>
        <feFuncA type="table" tableValues="0 0.05" />
      </feComponentTransfer>
    </filter>
  </defs>

  <rect width="1280" height="800" fill="url(#bg)" />
  <rect width="1280" height="800" fill="url(#light)" />
  <ellipse cx="640" cy="684" rx="460" ry="108" fill="url(#tableGlow)" filter="url(#blur28)" />
  <ellipse cx="640" cy="700" rx="542" ry="88" fill="#0d1714" />

  <path d="M120 586 C 256 550, 402 542, 560 554 C 722 566, 876 594, 1060 634 C 1130 650, 1204 660, 1280 672 L 1280 800 L 0 800 L 0 660 C 38 646, 78 624, 120 586 Z" fill="#101916" />
  <path d="M118 602 C 292 566, 468 560, 652 574 C 828 588, 988 620, 1138 658" fill="none" stroke="#f5e1af" stroke-opacity="0.15" stroke-width="10" stroke-linecap="round" />

  <path d="M452 562 C 530 540, 610 534, 690 538 C 772 542, 848 560, 920 594 L 916 688 C 846 708, 766 716, 678 714 C 582 712, 494 698, 420 674 L 414 596 C 428 584, 438 570, 452 562 Z" fill="url(#cloth)" fill-opacity="0.38" />
  <path d="M476 582 C 552 564, 628 560, 704 564 C 780 568, 850 582, 914 606" fill="none" stroke="#f7e8c4" stroke-opacity="0.14" stroke-width="6" stroke-linecap="round" />

  <path d="M438 514 C 484 470, 548 446, 624 440 C 704 434, 772 450, 828 488 C 822 544, 800 584, 762 610 C 718 640, 660 656, 594 654 C 526 652, 468 636, 426 606 C 404 590, 396 552, 438 514 Z" fill="url(#basket)" />
  <path d="M452 524 C 508 492, 566 476, 626 476 C 688 476, 744 490, 796 520" fill="none" stroke="#f6d18a" stroke-opacity="0.26" stroke-width="8" stroke-linecap="round" />
  <path d="M470 548 C 528 520, 582 506, 626 506 C 674 506, 726 520, 778 548" fill="none" stroke="#8f5f31" stroke-opacity="0.3" stroke-width="4" stroke-linecap="round" />
  <path d="M486 576 C 540 552, 592 540, 626 540 C 660 540, 710 552, 768 576" fill="none" stroke="#8f5f31" stroke-opacity="0.22" stroke-width="4" stroke-linecap="round" />

  <ellipse cx="578" cy="516" rx="62" ry="38" fill="url(#bread)" />
  <ellipse cx="672" cy="504" rx="52" ry="32" fill="url(#bread)" />
  <ellipse cx="724" cy="560" rx="38" ry="24" fill="url(#orange)" />
  <ellipse cx="760" cy="516" rx="22" ry="22" fill="url(#orange)" />
  <ellipse cx="530" cy="558" rx="18" ry="18" fill="#c88b4a" />
  <ellipse cx="494" cy="540" rx="12" ry="12" fill="#8d5e33" fill-opacity="0.78" />
  <path d="M550 510 C 566 500, 592 496, 622 500" fill="none" stroke="#fff5d7" stroke-opacity="0.2" stroke-width="3" stroke-linecap="round" />
  <path d="M694 494 C 708 486, 728 482, 750 486" fill="none" stroke="#fff5d7" stroke-opacity="0.18" stroke-width="3" stroke-linecap="round" />

  <ellipse cx="868" cy="590" rx="66" ry="44" fill="#f2dfbb" fill-opacity="0.9" />
  <ellipse cx="868" cy="590" rx="46" ry="30" fill="#dcc79b" fill-opacity="0.94" />
  <path d="M822 592 C 840 568, 892 560, 920 580" fill="none" stroke="#fff4d5" stroke-opacity="0.16" stroke-width="3" stroke-linecap="round" />

  <circle cx="940" cy="254" r="10" fill="#fff0c8" fill-opacity="0.4" filter="url(#blur16)" />
  <circle cx="1000" cy="290" r="8" fill="#fff0c8" fill-opacity="0.24" filter="url(#blur16)" />
  <circle cx="948" cy="332" r="6" fill="#fff0c8" fill-opacity="0.16" filter="url(#blur16)" />
  <rect width="1280" height="800" filter="url(#grain)" opacity="0.14" />
</svg>
